<svg xmlns="http://www.w3.org/2000/svg" width="430" height="430" style="width:100%;height:100%;transform:translate3d(0,0,0);content-visibility:visible" viewBox="0 0 430 430"><defs><clipPath id="l"><path d="M0 0h430v430H0z"/></clipPath><clipPath id="D"><path d="M0 0h430v430H0z"/></clipPath><clipPath id="C"><path d="M0 0h430v430H0z"/></clipPath><clipPath id="B"><path d="M0 0h430v430H0z"/></clipPath><clipPath id="y"><path d="M0 0h430v430H0z"/></clipPath><clipPath id="w"><path d="M0 0h430v430H0z"/></clipPath><clipPath id="u"><path d="M0 0h430v430H0z"/></clipPath><clipPath id="t"><path d="M0 0h430v430H0z"/></clipPath><clipPath id="s"><path d="M0 0h430v430H0z"/></clipPath><clipPath id="q"><path d="M0 0h430v430H0z"/></clipPath><clipPath id="o"><path d="M0 0h430v430H0z"/></clipPath><clipPath id="n"><path d="M0 0h430v430H0z"/></clipPath><clipPath id="m"><path d="M0 0h430v430H0z"/></clipPath><mask id="A" mask-type="alpha"><g filter="url(#a)"><path fill="#fff" d="M0 0h430v430H0z" opacity="0"/><use xmlns:ns1="http://www.w3.org/1999/xlink" ns1:href="#b"/></g></mask><mask id="z" mask-type="alpha"><g filter="url(#c)"><path fill="#fff" d="M0 0h430v430H0z" opacity="0"/><use xmlns:ns2="http://www.w3.org/1999/xlink" ns2:href="#d"/></g></mask><mask id="x" mask-type="alpha"><g filter="url(#e)"><path fill="#fff" d="M0 0h430v430H0z" opacity="0"/><use xmlns:ns3="http://www.w3.org/1999/xlink" ns3:href="#f"/></g></mask><mask id="v" mask-type="alpha"><g filter="url(#g)"><path fill="#fff" d="M0 0h430v430H0z" opacity="0"/><use xmlns:ns4="http://www.w3.org/1999/xlink" ns4:href="#h"/></g></mask><mask id="r" mask-type="alpha"><use xmlns:ns5="http://www.w3.org/1999/xlink" ns5:href="#i"/></mask><mask id="p" mask-type="alpha"><g filter="url(#j)"><path fill="#fff" d="M0 0h430v430H0z" opacity="0"/><use xmlns:ns6="http://www.w3.org/1999/xlink" ns6:href="#k"/></g></mask><filter id="a" width="100%" height="100%" x="0%" y="0%" filterUnits="objectBoundingBox"><feComponentTransfer in="SourceGraphic"><feFuncA tableValues="1.0 0.0" type="table"/></feComponentTransfer></filter><filter id="c" width="100%" height="100%" x="0%" y="0%" filterUnits="objectBoundingBox"><feComponentTransfer in="SourceGraphic"><feFuncA tableValues="1.0 0.0" type="table"/></feComponentTransfer></filter><filter id="e" width="100%" height="100%" x="0%" y="0%" filterUnits="objectBoundingBox"><feComponentTransfer in="SourceGraphic"><feFuncA tableValues="1.0 0.0" type="table"/></feComponentTransfer></filter><filter id="g" width="100%" height="100%" x="0%" y="0%" filterUnits="objectBoundingBox"><feComponentTransfer in="SourceGraphic"><feFuncA tableValues="1.0 0.0" type="table"/></feComponentTransfer></filter><filter id="j" width="100%" height="100%" x="0%" y="0%" filterUnits="objectBoundingBox"><feComponentTransfer in="SourceGraphic"><feFuncA tableValues="1.0 0.0" type="table"/></feComponentTransfer></filter><path id="b" fill-opacity="0" stroke-linecap="round" stroke-linejoin="round" style="display:none"/><path id="d" fill-opacity="0" stroke-linecap="round" stroke-linejoin="round" style="display:none"/><path id="f" fill-opacity="0" stroke-linecap="round" stroke-linejoin="round" style="display:none"/><path id="i" fill="red" d="M144.945 14.956c19.992-19.992 30.034-46.214 30.034-72.394 0-26.222-10.042-52.444-30.034-72.436-17.063-17.08-38.65-26.873-60.907-29.376-29.9-3.363-60.994 6.43-83.919 29.376l-.123.122-.126-.122c-19.992-19.992-46.214-30.034-72.394-30.034-26.222 0-52.44 10.042-72.432 30.034-40.029 39.988-40.029 104.842 0 144.83L-.004 159.908z" style="display:block" transform="translate(215 215)"/><path id="k" style="display:none"/><g id="h" style="display:none"><path/><path fill-opacity="0" stroke-linecap="round" stroke-linejoin="round"/><path/><path fill-opacity="0" stroke-linecap="round" stroke-linejoin="round"/></g></defs><g clip-path="url(#l)"><g fill="none" clip-path="url(#m)" style="display:none"><g style="display:none"><path class="primary"/><path class="primary"/></g><path class="secondary" style="display:none"/></g><g fill="none" clip-path="url(#n)" style="display:none"><path class="primary" style="display:none"/><path class="primary" style="display:none"/><path class="secondary" style="display:none"/></g><g clip-path="url(#o)" style="display:none"><g mask="url(#p)" style="display:none"><path fill="none" class="primary"/></g><path fill="none" class="secondary" style="display:none"/></g><g clip-path="url(#q)" style="display:block"><g mask="url(#r)" style="display:block"><path fill="none" stroke="#E8392F" stroke-linecap="round" stroke-linejoin="round" stroke-width="18" d="M396 5v428H-87V5z" class="primary"/><path fill="#E8392F" d="M396 5v428H-87V5z" class="primary"/></g><path fill="none" stroke="#E8392F" stroke-linecap="round" stroke-linejoin="round" stroke-width="18" d="M144.945 14.956c19.992-19.992 30.034-46.214 30.034-72.394 0-26.222-10.042-52.444-30.034-72.436-17.063-17.08-38.65-26.873-60.907-29.376-29.9-3.363-60.994 6.43-83.919 29.376l-.123.122-.126-.122c-19.992-19.992-46.214-30.034-72.394-30.034-26.222 0-52.44 10.042-72.432 30.034-40.029 39.988-40.029 104.842 0 144.83L-.004 159.908z" class="primary" style="display:block" transform="translate(215 215)"/></g><g fill="none" clip-path="url(#s)" style="display:none"><path class="secondary" style="display:none"/><path class="primary" style="display:none"/><path class="primary" style="display:none"/></g><g fill="none" clip-path="url(#t)" style="display:none"><path class="primary" style="display:none"/><path class="primary" style="display:none"/><path class="primary" style="display:none"/></g><g clip-path="url(#u)" style="display:none"><g mask="url(#v)" style="display:none"><path fill="none" class="primary"/></g><path fill="none" class="secondary" style="display:none"/><path fill="none" class="secondary" style="display:none"/></g><g clip-path="url(#w)" style="display:none"><g mask="url(#x)" style="display:none"><path fill="none" class="primary"/></g><path fill="none" class="secondary" style="display:none"/></g><g clip-path="url(#y)" style="display:none"><g mask="url(#z)" style="display:none"><path fill="none" class="secondary"/></g><g mask="url(#A)" style="display:none"><path fill="none"/></g><path fill="none" class="secondary" style="display:none"/></g><g fill="none" clip-path="url(#B)" style="display:none"><path class="primary" style="display:none"/><path class="secondary" style="display:none"/></g><g fill="none" clip-path="url(#C)" style="display:none"><path class="primary" style="display:none"/><path class="secondary" style="display:none"/></g><g fill="none" clip-path="url(#D)" style="display:none"><path class="secondary" style="display:none"/><path class="primary" style="display:none"/></g></g></svg>